<svg id="Capa_1" data-name="Capa 1" xmlns="http://www.w3.org/2000/svg" viewBox="0 0 644.24 383.92"><defs><style>.cls-1{fill:#e6e4e2;}.cls-1,.cls-2,.cls-3,.cls-4{fill-rule:evenodd;}.cls-2{fill:#1d1d1b;}.cls-3{fill:#c6c6c6;}.cls-4{fill:#fff;}</style></defs><title>logo</title><path class="cls-1" d="M4641.21,4408.34a64.72,64.72,0,0,0,1.69-21.52,89,89,0,0,0-5.23-22.93,133.66,133.66,0,0,0-10.06-21.26c-11.81-20.21-29.71-40.7-47.44-57a453.85,453.85,0,0,0-40.63-33.37,646.21,646.21,0,0,0-83.16-51.25,805.2,805.2,0,0,0-96.57-42.34,792.7,792.7,0,0,0-79-24.21c-43.86-11.08-93.25-18.39-137.5-18.16-24.32,0-51.81,3.12-74.41,10.09a132.23,132.23,0,0,0-24.89,10.46c-16.88,9.13-30.46,23.37-35.17,41.93-3.65,14.41-1.68,30.45,3.54,44.45a132.8,132.8,0,0,0,10.06,21.26c11.81,20.21,29.71,40.7,47.44,57a453.85,453.85,0,0,0,40.63,33.37,646.21,646.21,0,0,0,83.16,51.25,805.2,805.2,0,0,0,96.57,42.34,791.1,791.1,0,0,0,79,24.21c43.85,11.08,93.25,18.4,137.5,18.16,24.31,0,51.8-3.12,74.41-10.09a132.23,132.23,0,0,0,24.89-10.46C4623,4441.07,4636.46,4426.93,4641.21,4408.34Zm-2.39-.61a56,56,0,0,1-7.6,17.07c-12.15,18.05-33.17,28.52-53.44,34.38a229.67,229.67,0,0,1-45.14,8,373.18,373.18,0,0,1-49.26.67,573.24,573.24,0,0,1-94.21-13.07c-89.61-19.92-182.12-57.77-258.67-108.88-28.71-19.23-54.14-39.69-77.3-64.59-12.8-13.84-23.19-27.54-31.82-43.77a110.73,110.73,0,0,1-10.14-26.68,66.66,66.66,0,0,1,0-31.49,56.06,56.06,0,0,1,7.6-17.05c12.14-18.05,33.17-28.52,53.44-34.38a229.67,229.67,0,0,1,45.14-8,373,373,0,0,1,49.25-.67,573.36,573.36,0,0,1,94.22,13.07c89.61,19.92,182.12,57.78,258.67,108.88,28.71,19.23,54.13,39.69,77.3,64.59,12.8,13.84,23.18,27.54,31.82,43.77a110.7,110.7,0,0,1,10.13,26.68A66.45,66.45,0,0,1,4638.82,4407.73Z" transform="translate(-4006.93 -4087.1)"/><path class="cls-1" d="M4016.92,4408.52a58.47,58.47,0,0,0,7.94,17.82,68.6,68.6,0,0,0,14.58,15.69,97.68,97.68,0,0,0,18.4,11.4,143.76,143.76,0,0,0,21.83,8.29,232.34,232.34,0,0,0,45.62,8.1,376.16,376.16,0,0,0,49.57.68,575.93,575.93,0,0,0,94.62-13.13,774.64,774.64,0,0,0,98.42-28.75,813.52,813.52,0,0,0,78-33c42.19-20.4,85.49-46.73,121.26-75.7,20.14-16.21,40.78-36.35,56-56.49a180.39,180.39,0,0,0,15.67-24.55,113.1,113.1,0,0,0,10.35-27.26,69,69,0,0,0,.05-32.63c-3.25-13.23-11.81-25.13-22.53-33.53a97.92,97.92,0,0,0-18.39-11.4,143.87,143.87,0,0,0-21.84-8.29,231.51,231.51,0,0,0-45.61-8.1,376.31,376.31,0,0,0-49.58-.68,575.81,575.81,0,0,0-94.61,13.13,774.31,774.31,0,0,0-98.43,28.75,813.52,813.52,0,0,0-78,33c-42.18,20.4-85.49,46.72-121.26,75.7-20.13,16.21-40.77,36.35-56,56.49a179.84,179.84,0,0,0-15.68,24.55,113.1,113.1,0,0,0-10.35,27.26A68.92,68.92,0,0,0,4016.92,4408.52Zm2.39-.61a62.18,62.18,0,0,1-1.63-20.7c2.15-23.36,14.92-45.8,29-63.93a297.1,297.1,0,0,1,32.93-35.65,450.54,450.54,0,0,1,40.4-33.19,642.73,642.73,0,0,1,82.83-51.06A810.27,810.27,0,0,1,4377.88,4137a626.32,626.32,0,0,1,92-16.06,448.3,448.3,0,0,1,44.88-2,298,298,0,0,1,50.86,4.44c24.05,4.31,50.46,13.23,67.66,31.52a57.3,57.3,0,0,1,13.56,24.67,62.05,62.05,0,0,1,1.62,20.68c-2.14,23.36-14.92,45.81-29,63.93a296.43,296.43,0,0,1-32.93,35.66,453.38,453.38,0,0,1-40.4,33.19,642.34,642.34,0,0,1-82.84,51.05,809,809,0,0,1-175,66.35,623.68,623.68,0,0,1-92,16.06,445.16,445.16,0,0,1-44.87,2,298,298,0,0,1-50.87-4.44c-24.05-4.31-50.46-13.23-67.65-31.52A57.17,57.17,0,0,1,4019.31,4407.91Z" transform="translate(-4006.93 -4087.1)"/><path class="cls-2" d="M4547.58,4341.94a215.56,215.56,0,0,0,39.13-49.3c-.68-1.11-1.36-2.22-2.05-3.32-1.49-8.66-21.39-34.57-29.27-44a6.87,6.87,0,0,1,.33-2.65c15.15-36,23.34-79.08,24.26-129.49l-.46.18c-.34-18-4.81-29.26-16.4-25.57q-77,24.48-130.56,80.93c-76.56-19.64-183.23-19.63-259.68,0q-53.45-56.4-130.54-80.9c-7.87-2.5-14.11,1.75-14.18,9.66-.49,56,7.23,104.72,23.5,146-11.66,13.26-25.12,31.53-30.94,47.74,0,.33,1.1,4.54,1.26,4.83,77,137.94,262.77,151.25,279.4,152.27h1.23l1.41-.07C4318.45,4447.45,4459.13,4437.4,4547.58,4341.94Z" transform="translate(-4006.93 -4087.1)"/><path class="cls-3" d="M4082.58,4246.05a240.55,240.55,0,0,0-16.1,19.82l-.08.12c-5.09,7.34-11.06,16.88-15.61,24.48v3.5a246.72,246.72,0,0,0,68.32,77.76,323.82,323.82,0,0,0,64,37.18,445,445,0,0,0,142.63,35.33l.3,0,1.66-.09a419.69,419.69,0,0,0,68-10.51,441.82,441.82,0,0,0,49-14.45,355,355,0,0,0,72.85-35.67,274.56,274.56,0,0,0,45.88-37.15,238.65,238.65,0,0,0,39.31-52.44v-3.49c-4.37-7.32-10.09-16.5-15-23.58a232.84,232.84,0,0,0-16.83-20.83,312.65,312.65,0,0,0,18.73-68.08,465.09,465.09,0,0,0,5.61-79,4.69,4.69,0,0,0-6.08-4.4c-50.46,15.85-95.07,43.6-130.51,82a424.2,424.2,0,0,0-57.95-11,595.65,595.65,0,0,0-66.76-4.43,616.92,616.92,0,0,0-67,2.83,446.79,446.79,0,0,0-72.08,12.62c-35.51-38.49-80.78-66.43-130.49-82a4.68,4.68,0,0,0-6.07,4.4,473.58,473.58,0,0,0,4.45,71.4A317.92,317.92,0,0,0,4082.58,4246.05Z" transform="translate(-4006.93 -4087.1)"/><path class="cls-4" d="M4067.54,4105.49a300.9,300.9,0,0,1,60.33,28.1,282.3,282.3,0,0,1,61.92,51.39,4.66,4.66,0,0,0,4.69,1.38c59.75-16.16,130-18.91,191.18-13a437.67,437.67,0,0,1,73.26,13.07,4.67,4.67,0,0,0,4.68-1.38,282.39,282.39,0,0,1,55.52-47.36,299.18,299.18,0,0,1,66.75-32.17,465.59,465.59,0,0,1-4.4,63.64,308.43,308.43,0,0,1-20.4,76.13,4.69,4.69,0,0,0,.9,5,231.12,231.12,0,0,1,18,22q6.69,9.89,12.85,20.1a237.2,237.2,0,0,1-64.09,71.94,314.1,314.1,0,0,1-62.1,36.1,399,399,0,0,1-47.69,17.48h0a429.41,429.41,0,0,1-91.85,17l-1,0A437.54,437.54,0,0,1,4212,4410.43a345.37,345.37,0,0,1-71-34.75,264.25,264.25,0,0,1-44.3-35.87,228.69,228.69,0,0,1-36.14-47.51q6.45-10.67,13.49-21a231,231,0,0,1,17.37-21.11,4.67,4.67,0,0,0,.89-5,303.16,303.16,0,0,1-19.25-68.72A454.39,454.39,0,0,1,4067.54,4105.49Z" transform="translate(-4006.93 -4087.1)"/><path class="cls-3" d="M4328.7,4368.09c178.6,72.25,235.94-82.9,235.94-82.9-159.92-189-235.94,82.9-235.94,82.9Z" transform="translate(-4006.93 -4087.1)"/><path class="cls-3" d="M4321,4366.94c-178.6,72.26-235.94-82.89-235.94-82.89,159.92-189,235.94,82.89,235.94,82.89Z" transform="translate(-4006.93 -4087.1)"/><path class="cls-2" d="M4173.12,4275.13c0-26.17,22.24-47.38,49.68-47.38s49.68,21.21,49.68,47.38-22.24,47.39-49.68,47.39-49.68-21.22-49.68-47.39Z" transform="translate(-4006.93 -4087.1)"/><path class="cls-2" d="M4430.57,4272.64c0-26.17,22.25-47.38,49.68-47.38s49.68,21.21,49.68,47.38-22.24,47.39-49.68,47.39-49.68-21.22-49.68-47.39Z" transform="translate(-4006.93 -4087.1)"/><path class="cls-4" d="M4222.2,4246c0-9.46,8-17.13,18-17.13s17.95,7.67,17.95,17.13-8,17.12-17.95,17.12-18-7.66-18-17.12Z" transform="translate(-4006.93 -4087.1)"/><path class="cls-4" d="M4477.87,4243.7c0-9.46,8-17.13,18-17.13s17.95,7.67,17.95,17.13-8,17.13-17.95,17.13-18-7.67-18-17.13Z" transform="translate(-4006.93 -4087.1)"/></svg>